<?xml version="1.0" encoding="UTF-8"?>
<!DOCTYPE svg PUBLIC "-//W3C//DTD SVG 1.1//EN" "http://www.w3.org/Graphics/SVG/1.1/DTD/svg11.dtd">
<svg xmlns="http://www.w3.org/2000/svg" version="1.1" width="256px" height="256px" style="shape-rendering:geometricPrecision; text-rendering:geometricPrecision; image-rendering:optimizeQuality; fill-rule:evenodd; clip-rule:evenodd" xmlns:xlink="http://www.w3.org/1999/xlink">
<g><path style="opacity:0.984" fill="#62e298" d="M 112.5,7.5 C 172,4.14826 213.834,29.4816 238,83.5C 254.672,134.299 244.506,178.799 207.5,217C 175.273,244.973 138.273,253.973 96.5,244C 58.4013,232.537 31.9013,208.37 17,171.5C 2.20614,128.272 8.20614,88.2723 35,51.5C 55.1553,26.8474 80.9886,12.1807 112.5,7.5 Z"/></g>
<g><path style="opacity:1" fill="#509c67" d="M 96.5,47.5 C 106.774,46.3051 114.774,49.9718 120.5,58.5C 149.515,59.0791 171.682,71.4124 187,95.5C 187.483,96.448 187.649,97.448 187.5,98.5C 194.946,98.5926 201.946,100.426 208.5,104C 213.197,109.039 213.697,114.539 210,120.5C 205.62,124.548 200.954,128.215 196,131.5C 196.546,171.539 177.379,196.706 138.5,207C 109.655,212.331 86.6552,203.331 69.5,180C 66.0321,179.958 62.5321,180.125 59,180.5C 43.173,179.927 38.8397,172.594 46,158.5C 49.8739,155.144 52.7073,151.144 54.5,146.5C 50.5144,118.329 59.0144,94.6623 80,75.5C 79.3256,62.2037 84.8256,52.8703 96.5,47.5 Z"/></g>
<g><path style="opacity:1" fill="#fefefe" d="M 98.5,63.5 C 104.445,62.9254 108.945,65.2587 112,70.5C 112.483,71.448 112.649,72.448 112.5,73.5C 138.82,68.7352 159.486,77.2352 174.5,99C 134.938,103.222 99.1048,116.722 67,139.5C 64.354,113.79 73.854,93.79 95.5,79.5C 93.7333,73.6226 94.7333,68.2893 98.5,63.5 Z"/></g>
<g><path style="opacity:1" fill="#fefefe" d="M 176.5,106.5 C 183.904,106.048 190.904,107.381 197.5,110.5C 198.655,113.446 198.821,116.446 198,119.5C 194.23,122.885 189.897,125.218 185,126.5C 186.015,147.814 179.015,165.814 164,180.5C 160.085,182.476 155.918,182.976 151.5,182C 144.814,177.643 139.814,171.809 136.5,164.5C 142.854,154.463 141.188,145.963 131.5,139C 119.852,134.907 112.018,138.74 108,150.5C 107.436,161.12 112.27,168.12 122.5,171.5C 127.53,181.685 135.53,188.185 146.5,191C 116.87,200.678 93.037,192.844 75,167.5C 69.8792,170.389 64.3792,171.223 58.5,170C 56.5864,168.587 55.2531,166.753 54.5,164.5C 55.6094,162.615 56.4427,160.615 57,158.5C 62.1779,152.659 68.0113,147.492 74.5,143C 105.718,123.204 139.718,111.037 176.5,106.5 Z"/></g>
</svg>
